<svg width="19" height="18" viewBox="0 0 19 18" fill="none" xmlns="http://www.w3.org/2000/svg">
<rect width="18" height="18" transform="translate(0.5)" fill="black"/>
<path d="M16.4605 13.818C16.1996 14.4206 15.8908 14.9754 15.5331 15.4854C15.0454 16.1807 14.6461 16.662 14.3384 16.9293C13.8613 17.368 13.3502 17.5926 12.803 17.6054C12.41 17.6054 11.9362 17.4936 11.3847 17.2668C10.8313 17.0411 10.3228 16.9293 9.85776 16.9293C9.37009 16.9293 8.84707 17.0411 8.28763 17.2668C7.72735 17.4936 7.27598 17.6118 6.93089 17.6235C6.40606 17.6459 5.88293 17.4148 5.36076 16.9293C5.02748 16.6386 4.61062 16.1403 4.11124 15.4343C3.57544 14.6805 3.13494 13.8063 2.78984 12.8096C2.42026 11.7331 2.23499 10.6907 2.23499 9.68151C2.23499 8.52548 2.48478 7.52842 2.98512 6.69288C3.37835 6.02175 3.90148 5.49234 4.55621 5.1037C5.21095 4.71505 5.91839 4.517 6.68024 4.50433C7.0971 4.50433 7.64376 4.63328 8.32309 4.8867C9.00051 5.14097 9.43547 5.26991 9.62617 5.26991C9.76875 5.26991 10.2519 5.11914 11.0711 4.81855C11.8457 4.53979 12.4995 4.42437 13.0351 4.46983C14.4864 4.58696 15.5767 5.15907 16.3018 6.18977C15.0039 6.97622 14.3618 8.07774 14.3746 9.49081C14.3863 10.5915 14.7856 11.5074 15.5703 12.2346C15.926 12.5722 16.3231 12.8331 16.765 13.0183C16.6692 13.2962 16.568 13.5624 16.4605 13.818ZM13.132 0.720098C13.132 1.58279 12.8168 2.38829 12.1886 3.13385C11.4304 4.02018 10.5135 4.53234 9.51906 4.45152C9.50638 4.34802 9.49904 4.23909 9.49904 4.12463C9.49904 3.29644 9.85957 2.41012 10.4998 1.68543C10.8195 1.31851 11.226 1.01341 11.719 0.770036C12.2109 0.530289 12.6762 0.397705 13.1139 0.375C13.1266 0.490329 13.132 0.605665 13.132 0.720087V0.720098Z" fill="white"/>
</svg>
