<svg width="26" height="21" viewBox="0 0 26 21" fill="none" xmlns="http://www.w3.org/2000/svg">
<path d="M2.39521 9.25464H2.39535H7.97674H7.97688C8.38658 9.25426 8.77939 9.09134 9.06909 8.80164C9.35879 8.51194 9.52171 8.11913 9.52209 7.70943V7.70929V2.12789V2.12775C9.52171 1.71806 9.35879 1.32525 9.06909 1.03554C8.77939 0.745844 8.38658 0.582924 7.97688 0.582544H7.97674L2.39535 0.582544L2.39521 0.582544C1.98551 0.582924 1.5927 0.745844 1.303 1.03554C1.0133 1.32525 0.85038 1.71806 0.85 2.12775V2.12789L0.85 7.70929L0.85 7.70943C0.85038 8.11913 1.0133 8.51194 1.303 8.80164C1.5927 9.09134 1.98551 9.25426 2.39521 9.25464ZM2.82442 2.55696H7.54767V7.28022H2.82442V2.55696Z" fill="#2F2F2F" stroke="#2F2F2F" stroke-width="0.3"/>
<path d="M24.1626 1.69888H12.9998C12.738 1.69888 12.4869 1.80289 12.3017 1.98802C12.1166 2.17316 12.0126 2.42426 12.0126 2.68609C12.0126 2.94791 12.1166 3.19901 12.3017 3.38415C12.4869 3.56929 12.738 3.6733 12.9998 3.6733H24.1626C24.4244 3.6733 24.6755 3.56929 24.8607 3.38415C25.0458 3.19901 25.1498 2.94791 25.1498 2.68609C25.1498 2.42426 25.0458 2.17316 24.8607 1.98802C24.6755 1.80289 24.4244 1.69888 24.1626 1.69888Z" fill="#2F2F2F" stroke="#2F2F2F" stroke-width="0.3"/>
<path d="M12.9998 8.13838H17.4649C17.7267 8.13838 17.9778 8.03437 18.163 7.84924C18.3481 7.6641 18.4521 7.413 18.4521 7.15117C18.4521 6.88935 18.3481 6.63825 18.163 6.45311C17.9778 6.26797 17.7267 6.16396 17.4649 6.16396H12.9998C12.738 6.16396 12.4869 6.26797 12.3017 6.45311C12.1166 6.63825 12.0126 6.88935 12.0126 7.15117C12.0126 7.413 12.1166 7.6641 12.3017 7.84924C12.4869 8.03437 12.738 8.13838 12.9998 8.13838Z" fill="#2F2F2F" stroke="#2F2F2F" stroke-width="0.3"/>
<path d="M2.39521 20.4175H2.39535H7.97674H7.97688C8.38658 20.4171 8.77939 20.2542 9.06909 19.9645C9.35879 19.6748 9.52171 19.282 9.52209 18.8723V18.8721V13.2907V13.2906C9.52171 12.8809 9.35879 12.4881 9.06909 12.1984C8.77939 11.9087 8.38658 11.7458 7.97688 11.7454H7.97674L2.39535 11.7454L2.39521 11.7454C1.98551 11.7458 1.5927 11.9087 1.303 12.1984C1.0133 12.4881 0.85038 12.8809 0.85 13.2906V13.2907L0.85 18.8721L0.85 18.8723C0.85038 19.282 1.0133 19.6748 1.303 19.9645C1.5927 20.2542 1.98551 20.4171 2.39521 20.4175ZM2.82442 13.7198H7.54767V18.4431H2.82442V13.7198Z" fill="#2F2F2F" stroke="#2F2F2F" stroke-width="0.3"/>
<path d="M24.1626 12.8616H24.1626H12.9998C12.738 12.8616 12.4869 12.9656 12.3017 13.1507C12.1166 13.3359 12.0126 13.587 12.0126 13.8488C12.0126 14.1106 12.1166 14.3617 12.3017 14.5469C12.4869 14.732 12.738 14.836 12.9998 14.836H24.1626H24.1626C24.4244 14.8359 24.6755 14.7319 24.8606 14.5468C25.0457 14.3617 25.1497 14.1106 25.1498 13.8488V13.8488C25.1497 13.587 25.0457 13.3359 24.8606 13.1508C24.6755 12.9657 24.4244 12.8617 24.1626 12.8616Z" fill="#2F2F2F" stroke="#2F2F2F" stroke-width="0.3"/>
<path d="M12.9998 17.3267C12.738 17.3267 12.4869 17.4307 12.3017 17.6158C12.1166 17.801 12.0126 18.0521 12.0126 18.3139C12.0126 18.5757 12.1166 18.8268 12.3017 19.012C12.4869 19.1971 12.738 19.3011 12.9998 19.3011H17.4649C17.7267 19.3011 17.9778 19.1971 18.163 19.012C18.3481 18.8268 18.4521 18.5757 18.4521 18.3139C18.4521 18.0521 18.3481 17.801 18.163 17.6158C17.9778 17.4307 17.7267 17.3267 17.4649 17.3267H12.9998Z" fill="#2F2F2F" stroke="#2F2F2F" stroke-width="0.3"/>
</svg>
