<svg width="24" height="27" viewBox="0 0 24 27" fill="none" xmlns="http://www.w3.org/2000/svg">
<path d="M20.4 2.70002H18V2.10002C18 1.78176 17.8736 1.47654 17.6485 1.2515C17.4235 1.02645 17.1183 0.900024 16.8 0.900024C16.4817 0.900024 16.1765 1.02645 15.9515 1.2515C15.7264 1.47654 15.6 1.78176 15.6 2.10002V2.70002H8.4V2.10002C8.4 1.78176 8.27357 1.47654 8.04853 1.2515C7.82348 1.02645 7.51826 0.900024 7.2 0.900024C6.88174 0.900024 6.57652 1.02645 6.35147 1.2515C6.12643 1.47654 6 1.78176 6 2.10002V2.70002H3.6C2.64553 2.70104 1.73045 3.08065 1.05554 3.75556C0.380628 4.43047 0.00101647 5.34556 0 6.30002V22.5C0.00101647 23.4545 0.380628 24.3696 1.05554 25.0445C1.73045 25.7194 2.64553 26.099 3.6 26.1H20.4C21.3545 26.099 22.2696 25.7194 22.9445 25.0445C23.6194 24.3696 23.999 23.4545 24 22.5V6.30002C23.999 5.34556 23.6194 4.43047 22.9445 3.75556C22.2696 3.08065 21.3545 2.70104 20.4 2.70002ZM2.4 6.30002C2.40042 5.98189 2.52699 5.67692 2.75194 5.45196C2.97689 5.22701 3.28187 5.10045 3.6 5.10002H6V5.70002C6 6.01828 6.12643 6.32351 6.35147 6.54855C6.57652 6.7736 6.88174 6.90002 7.2 6.90002C7.51826 6.90002 7.82348 6.7736 8.04853 6.54855C8.27357 6.32351 8.4 6.01828 8.4 5.70002V5.10002H15.6V5.70002C15.6 6.01828 15.7264 6.32351 15.9515 6.54855C16.1765 6.7736 16.4817 6.90002 16.8 6.90002C17.1183 6.90002 17.4235 6.7736 17.6485 6.54855C17.8736 6.32351 18 6.01828 18 5.70002V5.10002H20.4C20.7181 5.10045 21.0231 5.22701 21.2481 5.45196C21.473 5.67692 21.5996 5.98189 21.6 6.30002V9.30002H2.4V6.30002ZM21.6 22.5C21.5996 22.8182 21.473 23.1231 21.2481 23.3481C21.0231 23.573 20.7181 23.6996 20.4 23.7H3.6C3.28187 23.6996 2.97689 23.573 2.75194 23.3481C2.52699 23.1231 2.40042 22.8182 2.4 22.5V11.7H21.6V22.5Z" fill="#242424"/>
<path d="M6.5999 16.5C7.26264 16.5 7.7999 15.9628 7.7999 15.3C7.7999 14.6373 7.26264 14.1 6.5999 14.1C5.93716 14.1 5.3999 14.6373 5.3999 15.3C5.3999 15.9628 5.93716 16.5 6.5999 16.5Z" fill="#242424"/>
<path d="M12 16.5C12.6628 16.5 13.2 15.9628 13.2 15.3C13.2 14.6373 12.6628 14.1 12 14.1C11.3373 14.1 10.8 14.6373 10.8 15.3C10.8 15.9628 11.3373 16.5 12 16.5Z" fill="#242424"/>
<path d="M17.4 16.5C18.0627 16.5 18.6 15.9628 18.6 15.3C18.6 14.6373 18.0627 14.1 17.4 14.1C16.7372 14.1 16.2 14.6373 16.2 15.3C16.2 15.9628 16.7372 16.5 17.4 16.5Z" fill="#242424"/>
<path d="M6.5999 21.3C7.26264 21.3 7.7999 20.7628 7.7999 20.1C7.7999 19.4373 7.26264 18.9 6.5999 18.9C5.93716 18.9 5.3999 19.4373 5.3999 20.1C5.3999 20.7628 5.93716 21.3 6.5999 21.3Z" fill="#242424"/>
<path d="M12 21.3C12.6628 21.3 13.2 20.7628 13.2 20.1C13.2 19.4373 12.6628 18.9 12 18.9C11.3373 18.9 10.8 19.4373 10.8 20.1C10.8 20.7628 11.3373 21.3 12 21.3Z" fill="#242424"/>
<path d="M17.4 21.3C18.0627 21.3 18.6 20.7628 18.6 20.1C18.6 19.4373 18.0627 18.9 17.4 18.9C16.7372 18.9 16.2 19.4373 16.2 20.1C16.2 20.7628 16.7372 21.3 17.4 21.3Z" fill="#242424"/>
</svg>
