<svg width="19" height="19" viewBox="0 0 19 19" fill="none" xmlns="http://www.w3.org/2000/svg">
<rect width="18" height="18" transform="translate(0.5)" fill="white"/>
<path fill-rule="evenodd" clip-rule="evenodd" d="M18.64 9.70468C18.64 9.0665 18.5827 8.45286 18.4764 7.86377H10V11.3451H14.8436C14.635 12.4701 14.0009 13.4233 13.0477 14.0615V16.3197H15.9564C17.6582 14.7529 18.64 12.4456 18.64 9.70468Z" fill="#4285F4"/>
<path fill-rule="evenodd" clip-rule="evenodd" d="M9.99982 18.5C12.4298 18.5 14.4671 17.6941 15.9562 16.3195L13.0475 14.0613C12.2416 14.6013 11.2107 14.9204 9.99982 14.9204C7.65573 14.9204 5.67164 13.3372 4.96391 11.21H1.95709V13.5418C3.438 16.4831 6.48164 18.5 9.99982 18.5Z" fill="#34A853"/>
<path fill-rule="evenodd" clip-rule="evenodd" d="M4.96409 11.2099C4.78409 10.6699 4.68182 10.0931 4.68182 9.49995C4.68182 8.90677 4.78409 8.32995 4.96409 7.78995V5.45813H1.95727C1.34773 6.67313 1 8.04768 1 9.49995C1 10.9522 1.34773 12.3268 1.95727 13.5418L4.96409 11.2099Z" fill="#FBBC05"/>
<path fill-rule="evenodd" clip-rule="evenodd" d="M9.99982 4.07955C11.3212 4.07955 12.5075 4.53364 13.4403 5.42545L16.0216 2.84409C14.463 1.39182 12.4257 0.5 9.99982 0.5C6.48164 0.5 3.438 2.51682 1.95709 5.45818L4.96391 7.79C5.67164 5.66273 7.65573 4.07955 9.99982 4.07955Z" fill="#EA4335"/>
</svg>
