<svg width="16" height="17" viewBox="0 0 16 17" fill="none" xmlns="http://www.w3.org/2000/svg">
<path fill-rule="evenodd" clip-rule="evenodd" d="M8.65868 15.2218C9.95027 14.3312 13.33 11.6662 13.33 8.165C13.33 5.31245 11.0176 3 8.165 3C5.31245 3 3 5.31245 3 8.165C3 11.6662 6.37973 14.3312 7.67132 15.2218C7.97125 15.4286 8.35875 15.4286 8.65868 15.2218ZM8.16509 10.3786C9.38761 10.3786 10.3787 9.38754 10.3787 8.16502C10.3787 6.9425 9.38761 5.95145 8.16509 5.95145C6.94257 5.95145 5.95152 6.9425 5.95152 8.16502C5.95152 9.38754 6.94257 10.3786 8.16509 10.3786Z" fill="#8FBEB4"/>
</svg>
