<svg width="16" height="17" viewBox="0 0 16 17" fill="none" xmlns="http://www.w3.org/2000/svg">
<path d="M3.97648 3.09086C3.52434 3.21202 3.11204 3.45005 2.78105 3.78105C2.45005 4.11204 2.21202 4.52433 2.09086 4.97648" stroke="#8FBEB4" stroke-width="1.5" stroke-linecap="round"/>
<path d="M12.0235 3.09086C12.4757 3.21202 12.888 3.45005 13.219 3.78105C13.5499 4.11204 13.788 4.52433 13.9091 4.97648" stroke="#8FBEB4" stroke-width="1.5" stroke-linecap="round"/>
<path fill-rule="evenodd" clip-rule="evenodd" d="M8.00008 14.3334C10.9456 14.3334 13.3334 11.9455 13.3334 9.00002C13.3334 6.0545 10.9456 3.66669 8.00008 3.66669C5.05456 3.66669 2.66675 6.0545 2.66675 9.00002C2.66675 11.9455 5.05456 14.3334 8.00008 14.3334ZM8.75008 6.33335C8.75008 5.91914 8.4143 5.58335 8.00008 5.58335C7.58587 5.58335 7.25008 5.91914 7.25008 6.33335V8.75002C7.25008 9.3023 7.6978 9.75002 8.25008 9.75002H10.0001C10.4143 9.75002 10.7501 9.41423 10.7501 9.00002C10.7501 8.58581 10.4143 8.25002 10.0001 8.25002H8.75008V6.33335Z" fill="#8FBEB4"/>
</svg>
